# xmcd
#
# Track frame offsets:
#	150
#	9852
#	22452
#	32847
#	46080
#	57592
#	68072
#	80362
#	90875
#	103280
#	115927
#	129285
#	138922
#	151455
#	161017
#	174090
#	188027
#	201597
#	215545
#
# Disc length: 3054 seconds
#
# Revision: 0
# Processed by: cddbd v1.5.2PL0 Copyright (c) Steve Scherf et al.
# Submitted via: audiograbber 1.83.01
#
DISCID=fe0bec13
DTITLE=Wilf Carter - Montana Slim
DYEAR=1900
DGENRE=Country
TTITLE0=It Makes No Difference Now
TTITLE1=When It`s Springtime In The Rockies
TTITLE2=Rattlin' Cannonball
TTITLE3=Roundup Time In Heaven
TTITLE4=The Cattle Call
TTITLE5=There's A Bluebird On My Windowsill
TTITLE6=The Blue Canadian Rockies
TTITLE7=You Are My Sunshine
TTITLE8=Rockin' Alone In My Old Rockin' Chair
TTITLE9=A Bouquet Of Memories
TTITLE10=I`m Thinking Tonight Of My Blue Eyes
TTITLE11=Born To Lose
TTITLE12=You`re Nobody`s Darlin But Mine
TTITLE13=No Letter Today
TTITLE14=It`s All Over Now (I Won't Worry)
TTITLE15=Ther`s A Love Knot In My Lariat
TTITLE16=Old Shep
TTITLE17=Red River Valley Blues
TTITLE18=Almost Presuaded
EXTD=
EXTT0=
EXTT1=
EXTT2=
EXTT3=
EXTT4=
EXTT5=
EXTT6=
EXTT7=
EXTT8=
EXTT9=
EXTT10=
EXTT11=
EXTT12=
EXTT13=
EXTT14=
EXTT15=
EXTT16=
EXTT17=
EXTT18=
PLAYORDER=
